<mxfile host="Electron" agent="Mozilla/5.0 (Windows NT 10.0; Win64; x64) AppleWebKit/537.36 (KHTML, like Gecko) draw.io/25.0.2 Chrome/128.0.6613.186 Electron/32.2.5 Safari/537.36" version="25.0.2">
  <diagram name="Page-1" id="kyBP1KyYC7etYvGc7trC">
    <mxGraphModel dx="743" dy="480" grid="1" gridSize="10" guides="1" tooltips="1" connect="1" arrows="1" fold="1" page="1" pageScale="1" pageWidth="850" pageHeight="1100" math="0" shadow="0">
      <root>
        <mxCell id="0" />
        <mxCell id="1" parent="0" />
        <mxCell id="a2lee4garykiodYszAOC-1" value="" style="endArrow=none;html=1;rounded=0;" edge="1" parent="1">
          <mxGeometry width="50" height="50" relative="1" as="geometry">
            <mxPoint x="280" y="400" as="sourcePoint" />
            <mxPoint x="280" y="40" as="targetPoint" />
          </mxGeometry>
        </mxCell>
        <mxCell id="a2lee4garykiodYszAOC-2" value="" style="endArrow=none;html=1;rounded=0;" edge="1" parent="1">
          <mxGeometry width="50" height="50" relative="1" as="geometry">
            <mxPoint x="519" y="401" as="sourcePoint" />
            <mxPoint x="518" y="41" as="targetPoint" />
          </mxGeometry>
        </mxCell>
        <mxCell id="a2lee4garykiodYszAOC-3" value="&lt;font style=&quot;font-size: 15px;&quot;&gt;Commercial&lt;/font&gt;" style="text;html=1;align=center;verticalAlign=middle;whiteSpace=wrap;rounded=0;" vertex="1" parent="1">
          <mxGeometry x="90" y="50" width="96" height="30" as="geometry" />
        </mxCell>
        <mxCell id="a2lee4garykiodYszAOC-4" value="&lt;span style=&quot;font-size: 15px;&quot;&gt;Director&lt;/span&gt;" style="text;html=1;align=center;verticalAlign=middle;whiteSpace=wrap;rounded=0;" vertex="1" parent="1">
          <mxGeometry x="350" y="50" width="96" height="30" as="geometry" />
        </mxCell>
        <mxCell id="a2lee4garykiodYszAOC-5" value="&lt;span style=&quot;font-size: 15px;&quot;&gt;Stock&lt;/span&gt;&lt;span style=&quot;color: rgba(0, 0, 0, 0); font-family: monospace; font-size: 0px; text-align: start; text-wrap: nowrap;&quot;&gt;%3CmxGraphModel%3E%3Croot%3E%3CmxCell%20id%3D%220%22%2F%3E%3CmxCell%20id%3D%221%22%20parent%3D%220%22%2F%3E%3CmxCell%20id%3D%222%22%20value%3D%22%22%20style%3D%22html%3D1%3BverticalAlign%3Dbottom%3BstartArrow%3Dcircle%3BstartFill%3D1%3BendArrow%3Dopen%3BstartSize%3D8%3BendSize%3D8%3Bcurved%3D0%3Brounded%3D0%3BentryX%3D0.5%3BentryY%3D0%3BentryDx%3D0%3BentryDy%3D0%3B%22%20edge%3D%221%22%20parent%3D%221%22%3E%3CmxGeometry%20width%3D%2280%22%20relative%3D%221%22%20as%3D%22geometry%22%3E%3CmxPoint%20x%3D%22330%22%20y%3D%22-1040%22%20as%3D%22sourcePoint%22%2F%3E%3CmxPoint%20x%3D%22330%22%20y%3D%22-980%22%20as%3D%22targetPoint%22%2F%3E%3C%2FmxGeometry%3E%3C%2FmxCell%3E%3C%2Froot%3E%3C%2FmxGraphModel%3E&lt;/span&gt;" style="text;html=1;align=center;verticalAlign=middle;whiteSpace=wrap;rounded=0;" vertex="1" parent="1">
          <mxGeometry x="610" y="50" width="96" height="30" as="geometry" />
        </mxCell>
        <mxCell id="a2lee4garykiodYszAOC-7" value="" style="html=1;verticalAlign=bottom;startArrow=circle;startFill=1;endArrow=open;startSize=7;endSize=8;curved=0;rounded=0;targetPerimeterSpacing=2;sourcePerimeterSpacing=0;" edge="1" parent="1">
          <mxGeometry width="80" relative="1" as="geometry">
            <mxPoint x="137.83" y="90" as="sourcePoint" />
            <mxPoint x="137.83" y="150" as="targetPoint" />
          </mxGeometry>
        </mxCell>
        <mxCell id="a2lee4garykiodYszAOC-22" style="edgeStyle=orthogonalEdgeStyle;rounded=0;orthogonalLoop=1;jettySize=auto;html=1;entryX=0;entryY=0.5;entryDx=0;entryDy=0;endSize=8;endArrow=open;endFill=0;" edge="1" parent="1" source="a2lee4garykiodYszAOC-8" target="a2lee4garykiodYszAOC-9">
          <mxGeometry relative="1" as="geometry" />
        </mxCell>
        <mxCell id="a2lee4garykiodYszAOC-8" value="&lt;font style=&quot;font-size: 14px;&quot;&gt;Activity 1&lt;/font&gt;" style="rounded=1;whiteSpace=wrap;html=1;fillColor=none;" vertex="1" parent="1">
          <mxGeometry x="88" y="150" width="100" height="30" as="geometry" />
        </mxCell>
        <mxCell id="a2lee4garykiodYszAOC-15" style="edgeStyle=orthogonalEdgeStyle;rounded=0;orthogonalLoop=1;jettySize=auto;html=1;entryX=0.5;entryY=0;entryDx=0;entryDy=0;endSize=8;endArrow=open;endFill=0;" edge="1" parent="1" source="a2lee4garykiodYszAOC-9" target="a2lee4garykiodYszAOC-12">
          <mxGeometry relative="1" as="geometry" />
        </mxCell>
        <mxCell id="a2lee4garykiodYszAOC-9" value="&lt;font style=&quot;font-size: 14px;&quot;&gt;Activity 2&lt;/font&gt;" style="rounded=1;whiteSpace=wrap;html=1;fillColor=none;" vertex="1" parent="1">
          <mxGeometry x="340" y="150" width="100" height="30" as="geometry" />
        </mxCell>
        <mxCell id="a2lee4garykiodYszAOC-10" value="&lt;font style=&quot;font-size: 14px;&quot;&gt;Activity 4&lt;/font&gt;" style="rounded=1;whiteSpace=wrap;html=1;fillColor=none;" vertex="1" parent="1">
          <mxGeometry x="608" y="210" width="100" height="30" as="geometry" />
        </mxCell>
        <mxCell id="a2lee4garykiodYszAOC-11" value="&lt;font style=&quot;font-size: 14px;&quot;&gt;Activity 5&lt;/font&gt;" style="rounded=1;whiteSpace=wrap;html=1;fillColor=none;" vertex="1" parent="1">
          <mxGeometry x="606" y="290" width="100" height="30" as="geometry" />
        </mxCell>
        <mxCell id="a2lee4garykiodYszAOC-17" style="edgeStyle=orthogonalEdgeStyle;rounded=0;orthogonalLoop=1;jettySize=auto;html=1;endSize=8;endArrow=open;endFill=0;" edge="1" parent="1" source="a2lee4garykiodYszAOC-12">
          <mxGeometry relative="1" as="geometry">
            <mxPoint x="330" y="260" as="targetPoint" />
          </mxGeometry>
        </mxCell>
        <mxCell id="a2lee4garykiodYszAOC-12" value="" style="rhombus;whiteSpace=wrap;html=1;fillColor=none;" vertex="1" parent="1">
          <mxGeometry x="370" y="210" width="40" height="40" as="geometry" />
        </mxCell>
        <mxCell id="a2lee4garykiodYszAOC-14" style="edgeStyle=orthogonalEdgeStyle;rounded=0;orthogonalLoop=1;jettySize=auto;html=1;entryX=-0.021;entryY=0.636;entryDx=0;entryDy=0;entryPerimeter=0;endArrow=open;endFill=0;endSize=8;" edge="1" parent="1" source="a2lee4garykiodYszAOC-12" target="a2lee4garykiodYszAOC-10">
          <mxGeometry relative="1" as="geometry" />
        </mxCell>
        <mxCell id="a2lee4garykiodYszAOC-16" value="&lt;font style=&quot;font-size: 14px;&quot;&gt;Activity 3&lt;/font&gt;" style="rounded=1;whiteSpace=wrap;html=1;fillColor=none;" vertex="1" parent="1">
          <mxGeometry x="290" y="260" width="100" height="30" as="geometry" />
        </mxCell>
        <mxCell id="a2lee4garykiodYszAOC-20" style="edgeStyle=orthogonalEdgeStyle;rounded=0;orthogonalLoop=1;jettySize=auto;html=1;entryX=0.5;entryY=0;entryDx=0;entryDy=0;endSize=8;endArrow=open;endFill=0;" edge="1" parent="1">
          <mxGeometry relative="1" as="geometry">
            <mxPoint x="650" y="240" as="sourcePoint" />
            <mxPoint x="650" y="290" as="targetPoint" />
            <Array as="points">
              <mxPoint x="650" y="250" />
              <mxPoint x="650" y="250" />
            </Array>
          </mxGeometry>
        </mxCell>
        <mxCell id="a2lee4garykiodYszAOC-21" style="edgeStyle=orthogonalEdgeStyle;rounded=0;orthogonalLoop=1;jettySize=auto;html=1;entryX=0.5;entryY=0;entryDx=0;entryDy=0;endSize=8;endArrow=open;endFill=0;" edge="1" parent="1">
          <mxGeometry relative="1" as="geometry">
            <mxPoint x="650" y="320" as="sourcePoint" />
            <mxPoint x="650" y="370" as="targetPoint" />
            <Array as="points">
              <mxPoint x="650" y="340" />
              <mxPoint x="650" y="340" />
            </Array>
          </mxGeometry>
        </mxCell>
        <mxCell id="a2lee4garykiodYszAOC-23" value="" style="ellipse;html=1;shape=endState;fillColor=#000000;strokeColor=#0008ff;perimeterSpacing=18;strokeWidth=1;" vertex="1" parent="1">
          <mxGeometry x="639" y="370" width="23" height="22" as="geometry" />
        </mxCell>
        <mxCell id="a2lee4garykiodYszAOC-25" value="" style="ellipse;html=1;shape=endState;fillColor=#000000;strokeColor=#0008ff;perimeterSpacing=18;strokeWidth=1;" vertex="1" parent="1">
          <mxGeometry x="317" y="340" width="23" height="22" as="geometry" />
        </mxCell>
        <mxCell id="a2lee4garykiodYszAOC-26" style="edgeStyle=orthogonalEdgeStyle;rounded=0;orthogonalLoop=1;jettySize=auto;html=1;entryX=0.5;entryY=0;entryDx=0;entryDy=0;endSize=8;endArrow=open;endFill=0;" edge="1" parent="1">
          <mxGeometry relative="1" as="geometry">
            <mxPoint x="328.3" y="290" as="sourcePoint" />
            <mxPoint x="328.3" y="340" as="targetPoint" />
            <Array as="points">
              <mxPoint x="328.3" y="300" />
              <mxPoint x="328.3" y="300" />
            </Array>
          </mxGeometry>
        </mxCell>
        <mxCell id="a2lee4garykiodYszAOC-27" value="Else" style="text;html=1;align=center;verticalAlign=middle;whiteSpace=wrap;rounded=0;" vertex="1" parent="1">
          <mxGeometry x="419" y="206" width="60" height="30" as="geometry" />
        </mxCell>
        <mxCell id="a2lee4garykiodYszAOC-28" value="If Condition" style="text;html=1;align=center;verticalAlign=middle;whiteSpace=wrap;rounded=0;" vertex="1" parent="1">
          <mxGeometry x="299" y="206" width="75" height="30" as="geometry" />
        </mxCell>
      </root>
    </mxGraphModel>
  </diagram>
</mxfile>
